<svg id="Layer_1" data-name="Layer 1" xmlns="http://www.w3.org/2000/svg" xmlns:xlink="http://www.w3.org/1999/xlink" viewBox="0 0 25 25"><defs><style>.cls-1,.cls-4{fill:none;}.cls-2{clip-path:url(#clip-path);}.cls-3{fill:#58b9bd;}.cls-4{stroke:#58b9bd;stroke-linecap:round;stroke-linejoin:round;}</style><clipPath id="clip-path"><rect class="cls-1" width="25" height="25"/></clipPath></defs><title>Artboard 4</title><g class="cls-2"><g class="cls-2"><path class="cls-3" d="M11.21,11.62a1.29,1.29,0,0,0,1.29,1.29c1.09,0,1.87-.58,1.87-1.29s-.74-1.29-1.87-1.29a1.29,1.29,0,0,0-1.29,1.29"/><path class="cls-3" d="M15.07,13.72h0c.23.82,1.12,3,4.41,5.16a.86.86,0,0,0,1.05-.09,10.17,10.17,0,0,0-2-16,.87.87,0,0,0-1.25.44L15,9.35a2.74,2.74,0,0,1,0,4.37"/><path class="cls-4" d="M2.22,15.71A11.07,11.07,0,0,1,12.5.56a10.76,10.76,0,0,1,3.37.53L13.41,8.77a3.09,3.09,0,0,0-.91-.14,3,3,0,1,0,0,6,3,3,0,0,0,.89-.13,11.67,11.67,0,0,0,6.22,6.74l-.14,1.18L2.53,18.21Z"/><line class="cls-4" x1="2.49" y1="20.36" x2="19.1" y2="24.44"/></g></g></svg>