<svg id="Layer_1" data-name="Layer 1" xmlns="http://www.w3.org/2000/svg" xmlns:xlink="http://www.w3.org/1999/xlink" viewBox="0 0 25 25"><defs><style>.cls-1,.cls-3{fill:none;}.cls-2{clip-path:url(#clip-path);}.cls-3{stroke:#58b9bd;stroke-linecap:round;stroke-linejoin:round;}.cls-4{fill:#58b9bd;}</style><clipPath id="clip-path"><rect class="cls-1" width="25" height="25"/></clipPath></defs><title>Artboard 5</title><g class="cls-2"><g class="cls-2"><path class="cls-3" d="M19.65,8.79a5.62,5.62,0,0,1-.07.92,7.15,7.15,0,0,1-4.07,5.58,7.13,7.13,0,0,0-3-4.95,7.11,7.11,0,0,0-3,5A7.15,7.15,0,0,1,5.37,9.73a5.86,5.86,0,0,1-.07-.94,7.18,7.18,0,1,1,14.35,0Z"/><path class="cls-3" d="M23.77,16.23a7.18,7.18,0,0,1-14.35,0,5.62,5.62,0,0,1,.07-.92,7.19,7.19,0,0,0,6,0,7.13,7.13,0,0,0-3-4.95,7.18,7.18,0,0,1,11.27,5.89Z"/><path class="cls-4" d="M15.51,15.29a7.19,7.19,0,0,1-6,0,7.11,7.11,0,0,1,3-5,7.13,7.13,0,0,1,3,4.95"/><path class="cls-3" d="M15.51,15.29a7.19,7.19,0,0,1-6,0,7.11,7.11,0,0,1,3-5A7.13,7.13,0,0,1,15.51,15.29Z"/><path class="cls-3" d="M15.58,16.23a7.17,7.17,0,1,1-3.08-5.89,7.11,7.11,0,0,0-3,5,7.19,7.19,0,0,0,6,0A5.86,5.86,0,0,1,15.58,16.23Z"/></g></g></svg>