<svg id="Layer_1" data-name="Layer 1" xmlns="http://www.w3.org/2000/svg" xmlns:xlink="http://www.w3.org/1999/xlink" viewBox="0 0 25 25"><defs><style>.cls-1,.cls-3{fill:none;}.cls-2{clip-path:url(#clip-path);}.cls-3{stroke:#58b9bd;stroke-linecap:round;stroke-linejoin:round;}.cls-4{fill:#58b9bd;}</style><clipPath id="clip-path"><rect class="cls-1" width="25" height="25"/></clipPath></defs><title>Artboard 3</title><g class="cls-2"><g class="cls-2"><path class="cls-3" d="M17.28,15.5l.07.07C19.81,18,15.2,22.73,11.62,22a3.92,3.92,0,0,0,.53-3.27l-.63.29a4.12,4.12,0,0,1-1.71.37,4.23,4.23,0,0,1-3-1.23A4.18,4.18,0,0,1,6,13.5c.12-.26.23-.5.35-.74a3.83,3.83,0,0,0-3.54.42C2.07,9.6,6.77,5,9.23,7.45a3.65,3.65,0,0,1,.27.3c6.21-7.49,14.07-6.3,14.07-6.3S24.76,9.3,17.28,15.5Z"/><path class="cls-4" d="M18.19,9.26a1.72,1.72,0,1,0-2.43,0,1.72,1.72,0,0,0,2.43,0"/><path class="cls-4" d="M13.87,12.63a1.06,1.06,0,0,0,0-1.49,1,1,0,0,0-1.48,0,1.06,1.06,0,0,0,0,1.49,1,1,0,0,0,1.48,0"/><path class="cls-4" d="M8.27,21.21a7.12,7.12,0,0,1-6.74,2.31l-.07-.06a7.13,7.13,0,0,1,2.32-6.74s-.1,3.37,4.49,4.49"/></g></g></svg>