<svg id="Layer_1" data-name="Layer 1" xmlns="http://www.w3.org/2000/svg" xmlns:xlink="http://www.w3.org/1999/xlink" viewBox="0 0 25 25"><defs><style>.cls-1,.cls-4,.cls-5{fill:none;}.cls-2{clip-path:url(#clip-path);}.cls-3{fill:#58b9bd;}.cls-4,.cls-5{stroke:#58b9bd;}.cls-4{stroke-miterlimit:10;}.cls-5{stroke-linecap:round;stroke-linejoin:round;}</style><clipPath id="clip-path"><rect class="cls-1" width="25" height="25"/></clipPath></defs><title>Artboard 6</title><g class="cls-2"><g class="cls-2"><path class="cls-3" d="M2.14,16.12H2a1,1,0,0,0-1,1V20a1,1,0,0,0,1,1h.12a1,1,0,0,0,1-1V17.09a1,1,0,0,0-1-1"/><rect class="cls-4" x="1.05" y="16.12" width="2.06" height="4.81" rx="0.97"/><line class="cls-5" x1="2.08" y1="9.53" x2="2.08" y2="16.12"/><path class="cls-5" d="M6,17.68V11.32c0-1.11,3.16-2,7.07-2s7.08.9,7.08,2v6.36"/><ellipse class="cls-5" cx="13.06" cy="17.68" rx="7.07" ry="2.01"/><polyline class="cls-5" points="23.95 9.43 13.06 4.07 2.17 9.43"/><line class="cls-5" x1="20.23" y1="11.41" x2="23.95" y2="9.58"/><line class="cls-5" x1="2.17" y1="9.58" x2="5.91" y2="11.42"/></g></g></svg>